Fly_normalized_Motion_pl07
version=1
nRows=14
nColumns=43
inDegrees=yes
endheader
time		pelvis_tilt		pelvis_list		pelvis_rotation		pelvis_tx		pelvis_ty		pelvis_tz		hip_flexion_r		hip_adduction_r		hip_rotation_r		knee_angle_r		ankle_angle_r		subtalar_angle_r		mtp_angle_r		hip_flexion_l		hip_adduction_l		hip_rotation_l		knee_angle_l		ankle_angle_l		subtalar_angle_l		mtp_angle_l		lumbar_extension		lumbar_bending		lumbar_rotation		neck_flexion		neck_lateral_bending		neck_rotation		arm_flex_r		arm_add_r		arm_rot_r		elbow_flex_r		pro_sup_r		wrist_flex_r		wrist_dev_r		hand_finger_flex_r		arm_flex_l		arm_add_l		arm_rot_l		elbow_flex_l		pro_sup_l		wrist_flex_l		wrist_dev_l		hand_finger_flex_l		
0.310000		2.346371		-25.855546		93.715365		0.007975		1.755720		1.480569		66.522222		-15.899599		2.957538		-124.991657		-3.474834		0.017640		-17.301644		67.191241		-10.390473		6.122506		-124.775005		17.532360		-7.500020		-15.251131		-21.996289		0.705046		-1.638203		14.744438		6.691449		4.650073		118.160620		-25.751482		50.521372		66.735516		68.911725		-29.304296		-9.934268		52.787999		132.917126		-21.652183		77.475320		63.700265		74.866981		-37.621764		4.241455		72.632265		
0.313990		2.266794		-25.597775		93.753086		0.007621		1.755867		1.473029		66.949967		-15.801227		2.997319		-125.174401		-1.297069		1.435965		-15.112172		67.541162		-10.056022		5.973721		-124.677721		17.079223		-9.046915		-15.517943		-22.247386		0.729748		-1.778584		14.675122		6.550885		4.660339		117.851814		-25.714530		50.122212		66.633006		70.274718		-29.581111		-9.381262		52.945059		132.648030		-21.960204		77.167532		63.773708		76.822143		-37.422675		4.677073		73.020793		
0.317980		2.332865		-25.326819		93.860465		0.007469		1.755874		1.465739		67.411574		-15.618047		2.750729		-125.243366		0.209044		1.981165		-13.482933		68.012342		-9.795779		6.083099		-124.657772		16.793355		-10.050135		-15.671812		-22.546880		0.855724		-1.869299		14.798706		6.468154		4.628719		117.602110		-25.691135		49.798464		66.390640		70.979164		-29.742824		-9.038257		53.025786		132.451452		-22.138766		76.991074		63.641913		77.918912		-37.296812		4.970235		73.218751		
0.321970		2.492349		-25.097037		94.098076		0.007165		1.755726		1.458432		67.882367		-15.490141		2.405698		-125.209301		0.641707		2.347967		-4.437076		68.610172		-9.464759		6.259311		-124.600999		16.292860		-11.403812		-15.508328		-22.776165		1.166617		-2.058805		14.720065		6.128790		4.632224		117.080876		-25.435228		48.998714		66.159741		72.526740		-29.743460		-8.291682		53.403215		131.881347		-22.544729		76.120975		63.767355		80.638469		-36.711583		5.993324		73.866275		
0.325960		2.633437		-24.920236		94.207413		0.007055		1.755275		1.451404		68.508239		-15.249946		2.087244		-125.185278		1.586038		2.235984		-1.508337		69.288979		-9.266785		6.340052		-124.543922		16.041013		-12.668552		-15.516289		-23.008731		1.378476		-2.102988		14.945892		6.013545		4.690045		116.788472		-25.381552		48.744197		65.872844		72.888937		-29.965194		-8.182940		53.360839		131.600620		-22.860878		75.967703		63.747494		81.341911		-36.721517		5.996484		73.860218		
0.329949		2.663356		-24.572951		94.300304		0.006792		1.754938		1.444216		69.034242		-15.125401		1.918480		-125.076551		1.950373		2.119311		-1.213766		69.798735		-9.013999		6.382252		-124.499303		15.953480		-13.152707		-15.544011		-23.427635		1.496141		-2.160250		14.995646		5.915065		4.691985		116.529751		-25.530804		48.664113		65.670589		72.888639		-30.113668		-8.204032		53.295782		131.392164		-23.135986		76.060824		63.672226		81.428396		-36.781652		5.887671		73.809501		
0.333939		2.732566		-24.374658		94.422683		0.006562		1.754256		1.437334		69.735185		-14.978481		1.714934		-124.948533		2.406517		1.608488		-0.878240		70.518541		-8.723179		6.425968		-124.409502		16.026919		-13.818211		-15.559866		-23.719361		1.665020		-2.258996		15.290487		5.774973		4.693240		116.181326		-25.461013		48.378142		65.286731		72.949047		-30.335766		-8.192260		53.223061		131.090592		-23.433687		76.001500		63.545185		81.740971		-36.859346		5.784491		73.812325		
0.337929		2.830553		-24.432417		94.620618		0.006293		1.753178		1.430457		70.724847		-14.883084		1.309950		-124.751154		2.331050		-0.351722		-0.300360		71.579397		-8.330837		6.490885		-124.241835		15.666180		-14.646630		-15.637345		-23.660734		1.937075		-2.528443		15.165464		5.376203		4.794969		115.416390		-25.111787		47.674946		64.935209		73.386330		-30.685382		-8.215158		53.181590		130.419379		-24.180950		75.602423		63.874668		82.976345		-36.951350		5.563651		74.066186		
0.341919		2.930573		-24.236422		94.701942		0.006092		1.752211		1.423545		71.541039		-14.678755		1.020541		-124.474262		1.720443		-2.103563		0.069024		72.353630		-8.126552		6.576554		-124.107536		15.835461		-14.631436		-15.676994		-23.904302		2.158975		-2.617655		15.221846		5.132579		4.958660		114.876613		-24.839543		47.140508		64.326400		74.143217		-30.545792		-8.050626		53.277630		129.752528		-24.570669		75.069591		63.698936		84.498488		-36.813884		5.832543		74.572286		
0.345909		2.966934		-24.019935		94.776151		0.005846		1.751101		1.416588		72.347462		-14.549963		0.815262		-124.209663		1.532730		-3.254990		0.132822		73.085004		-7.875940		6.592034		-123.926379		16.013501		-14.538811		-15.733336		-24.202000		2.297145		-2.675358		15.329269		4.997842		5.008300		114.327483		-24.833766		46.691313		63.959135		74.575980		-30.419794		-7.895847		53.305205		129.160915		-24.915609		74.733094		63.565851		85.476170		-36.720245		6.012426		74.880888		
0.349899		2.981351		-23.842157		94.856197		0.005569		1.749780		1.409652		73.221188		-14.447313		0.612199		-123.931171		1.494655		-4.334091		0.042878		73.849031		-7.585363		6.586922		-123.701658		16.207214		-14.377164		-15.813073		-24.467213		2.408855		-2.727935		15.477828		4.894977		5.011451		113.706484		-24.904297		46.191432		63.666926		74.936475		-30.270736		-7.717994		53.301371		128.535236		-25.256016		74.406139		63.437935		86.381443		-36.632293		6.179728		75.150018		
0.353889		2.921372		-23.608826		94.920898		0.005159		1.748371		1.402797		74.053421		-14.393996		0.504584		-123.653213		1.930913		-4.893173		-0.036019		74.531167		-7.185149		6.538705		-123.410481		16.243907		-14.189330		-15.845267		-24.850783		2.471573		-2.741555		16.029569		4.755822		5.046854		113.235101		-25.071536		45.904875		63.312758		74.993174		-30.272631		-7.636039		53.263184		128.057827		-25.491696		74.363829		63.140334		86.684800		-36.637750		6.224910		75.194689		
0.357879		3.055481		-23.659498		95.015734		0.005081		1.746654		1.395786		75.147634		-14.176582		-0.025264		-123.181578		1.704250		-6.891268		-1.652529		75.560819		-6.910731		6.745547		-123.094740		16.220351		-13.440097		-16.291160		-24.774217		2.651951		-2.711620		15.910232		4.693314		5.185124		112.033791		-25.009793		44.586724		63.035845		76.512861		-29.406349		-7.034850		53.073079		126.770827		-25.806776		73.213857		62.953682		89.833822		-36.293796		6.638119		76.014294		
0.361869		3.053496		-23.393665		95.062670		0.004814		1.745014		1.388844		75.970548		-14.047377		-0.215411		-122.795671		2.148465		-6.928739		-1.726373		76.198966		-6.593000		6.735676		-122.720268		16.040769		-13.190191		-16.336565		-25.182009		2.740449		-2.699071		16.353668		4.629780		5.102650		111.442443		-25.172277		44.304517		62.670212		76.443399		-29.445533		-6.897497		53.010439		126.286832		-26.126828		73.331098		62.664074		90.039595		-36.272204		6.696291		76.023306		
